<svg xmlns="http://www.w3.org/2000/svg" xmlns:xlink="http://www.w3.org/1999/xlink" width="100" height="100" viewBox="0 0 100 100"><g><g transform="translate(50 50) scale(0.69 0.69) rotate(0) translate(-50 -50)" style="fill:#ffffff"><svg fill="#ffffff" xmlns="http://www.w3.org/2000/svg" xmlns:xlink="http://www.w3.org/1999/xlink" version="1.1" x="0px" y="0px" viewBox="0 0 100 100" enable-background="new 0 0 100 100" xml:space="preserve"><path d="M690.894,12.246c0-0.773-0.301-1.5-0.848-2.046c-1.094-1.092-2.998-1.092-4.09,0.001l-39.349,39.348  c-0.483,0.071-0.947,0.277-1.303,0.634l-4.784,4.784l-4.637,1.036c-0.356,0.08-0.641,0.347-0.742,0.697  c-0.003,0.008-0.002,0.017-0.004,0.026l-25.164,6.937c-0.267,0.073-0.423,0.349-0.35,0.615c0.062,0.222,0.263,0.367,0.482,0.367  c0.044,0,0.089-0.006,0.133-0.018l25.16-6.936l0.57,0.571l-21.596,9.711c-0.233,0.106-0.322,0.375-0.231,0.613  c0.069,0.183,0.232,0.309,0.422,0.309c0.074,0,0.146-0.03,0.192-0.078l21.914-9.855l0.662,0.662l-18.561,12.659  c-0.2,0.138-0.223,0.396-0.111,0.612c0.074,0.143,0.202,0.25,0.362,0.25c0.104,0,0.201-0.055,0.25-0.139l18.693-12.75l0.707,0.708  l-15.502,15.628c-0.166,0.17-0.164,0.444,0.007,0.611c0.052,0.116,0.173,0.191,0.302,0.191c0.135,0,0.259-0.079,0.31-0.198  l15.495-15.621l0.71,0.709l-12.423,18.618c-0.134,0.203-0.078,0.476,0.125,0.61c0.049,0.081,0.143,0.133,0.242,0.133  c0.165,0,0.314-0.104,0.368-0.258l12.322-18.467l0.664,0.664l-9.322,21.629c-0.1,0.236,0.009,0.508,0.244,0.608  c0.044,0.045,0.112,0.074,0.183,0.074c0.194,0,0.371-0.127,0.426-0.318L642,64.291l0.561,0.56c0.003,0.003,0.008,0.004,0.012,0.007  l-6.201,24.667c-0.066,0.268,0.096,0.54,0.363,0.607c0.041,0.01,0.082,0.015,0.122,0.015c0.225,0,0.428-0.151,0.485-0.378  l6.2-24.664c0.002,0,0.003,0,0.005,0c0.351-0.102,0.617-0.387,0.696-0.743l1.035-4.637l4.784-4.784  c0.362-0.363,0.584-0.824,0.656-1.323l39.327-39.328C690.593,13.745,690.894,13.018,690.894,12.246z M643.819,58.356  c-0.056,0.045-0.106,0.096-0.153,0.153c-0.138,0.135-0.233,0.308-0.275,0.497l-0.702,3.145l-4.594-4.593l3.146-0.703  c0.162-0.036,0.312-0.112,0.437-0.22c0.03-0.023,0.071-0.056,0.091-0.074c0.049-0.044,0.093-0.093,0.131-0.146l4.82-4.819  c0.051-0.051,0.099-0.083,0.145-0.105l0.131,0.01c0.091,0.007,0.164,0.039,0.222,0.096l1.434,1.434  c0.058,0.057,0.09,0.133,0.097,0.224l0.003,0.041c-0.002,0.058-0.018,0.149-0.101,0.232L643.819,58.356z M688.632,12.876  l-38.653,38.654l-1.262-1.262l38.653-38.654c0.338-0.337,0.924-0.338,1.262,0c0.169,0.168,0.262,0.392,0.262,0.631  C688.894,12.484,688.801,12.708,688.632,12.876z"></path><path d="M518.658,65.431l48.785-48.786c1.128-1.127,1.128-2.962,0.001-4.09c-1.092-1.093-2.996-1.093-4.09,0l-48.809,48.809  c-0.483,0.07-0.946,0.277-1.302,0.633l-4.314,4.315l-9.672-9.672c-0.391-0.391-1.023-0.391-1.414,0  c-0.259,0.259-0.33,0.622-0.245,0.952l-5.243,5.243c-0.195,0.195-0.195,0.512,0,0.707c0.098,0.098,0.226,0.146,0.354,0.146  s0.256-0.049,0.354-0.146l5.135-5.135l1.703,1.703l-5.135,5.135c-0.195,0.195-0.195,0.511,0,0.707  c0.098,0.098,0.226,0.146,0.354,0.146s0.256-0.049,0.354-0.146l5.135-5.135l1.703,1.703l-5.135,5.135  c-0.195,0.195-0.195,0.512,0,0.707c0.098,0.098,0.226,0.146,0.354,0.146s0.256-0.049,0.354-0.146l5.135-5.135l1.703,1.703  l-5.136,5.135c-0.195,0.195-0.195,0.512,0,0.707c0.098,0.098,0.226,0.146,0.354,0.146c0.127,0,0.256-0.049,0.354-0.146l5.135-5.134  l1.703,1.703l-5.135,5.135c-0.195,0.195-0.195,0.511,0,0.707c0.098,0.098,0.226,0.146,0.354,0.146c0.127,0,0.255-0.049,0.353-0.146  l5.136-5.134l1.703,1.703l-5.135,5.135c-0.195,0.195-0.195,0.512,0,0.707c0.098,0.098,0.225,0.146,0.354,0.146  c0.127,0,0.256-0.049,0.354-0.146l5.135-5.135l1.703,1.703l-5.136,5.134c-0.195,0.195-0.195,0.512,0,0.707  c0.098,0.098,0.227,0.146,0.354,0.146c0.127,0,0.255-0.049,0.353-0.146l5.136-5.134l1.703,1.703l-5.135,5.134  c-0.195,0.195-0.195,0.512,0,0.707c0.098,0.098,0.225,0.146,0.354,0.146c0.127,0,0.255-0.049,0.353-0.146l5.135-5.135l1.703,1.703  l-5.135,5.135c-0.195,0.195-0.195,0.512,0,0.707c0.098,0.098,0.226,0.146,0.354,0.146s0.256-0.049,0.354-0.146l5.135-5.135  l1.703,1.703l-5.135,5.135c-0.195,0.195-0.195,0.512,0,0.707c0.098,0.098,0.226,0.146,0.354,0.146s0.256-0.049,0.354-0.146  l5.135-5.135l1.703,1.703l-5.135,5.135c-0.195,0.195-0.195,0.512,0,0.707c0.098,0.098,0.226,0.146,0.354,0.146  s0.256-0.049,0.354-0.146l5.243-5.243c0.081,0.021,0.162,0.048,0.245,0.048c0.256,0,0.512-0.098,0.707-0.293  c0.391-0.391,0.391-1.023,0-1.414l-9.671-9.671l4.314-4.314C518.365,66.394,518.587,65.931,518.658,65.431z M516.588,65.342  l-4.314,4.314l-1.93-1.93l4.314-4.315c0.052-0.051,0.1-0.084,0.146-0.106l0.127,0.01c0.092,0.007,0.167,0.04,0.225,0.097  l1.433,1.433c0.039,0.039,0.059,0.08,0.074,0.12c0.014,0.037,0.021,0.074,0.022,0.104l0.003,0.045  C516.686,65.172,516.669,65.261,516.588,65.342z M516.655,62.083l48.113-48.113c0.338-0.338,0.924-0.337,1.262,0  c0.348,0.348,0.347,0.914-0.001,1.261l-48.113,48.114L516.655,62.083z"></path><path d="M-399.2,22.35h-8.399v-3.5c0-1.546-1.254-2.8-2.801-2.8c-1.546,0-2.8,1.254-2.8,2.8v3.5h-33.6v-3.5  c0-1.546-1.254-2.8-2.8-2.8c-1.547,0-2.801,1.254-2.801,2.8v3.5h-8.399c-3.08,0-5.601,2.521-5.601,5.601V78.35  c0,3.081,2.521,5.601,5.601,5.601h61.6c3.08,0,5.601-2.52,5.601-5.601V27.95C-393.6,24.87-396.12,22.35-399.2,22.35z M-449.6,75.55  h-5.601v-5.6h5.601V75.55z M-449.6,64.35h-5.601v-5.6h5.601V64.35z M-438.4,75.55h-5.6v-5.6h5.6V75.55z M-438.4,64.35h-5.6v-5.6h5.6  V64.35z M-438.4,53.15h-5.6V47.55h5.6V53.15z M-427.2,75.55h-5.6v-5.6h5.6V75.55z M-427.2,64.35h-5.6v-5.6h5.6V64.35z M-427.2,53.15  h-5.6V47.55h5.6V53.15z M-416,75.55h-5.6v-5.6h5.6V75.55z M-416,64.35h-5.6v-5.6h5.6V64.35z M-416,53.15h-5.6V47.55h5.6V53.15z   M-404.8,64.35h-5.601v-5.6h5.601V64.35z M-404.8,53.15h-5.601V47.55h5.601V53.15z M-398.923,41.95h-62.154V36.35h62.154V41.95z"></path><path d="M-279.2,22.35h-8.399v-3.5c0-1.546-1.254-2.8-2.801-2.8c-1.546,0-2.8,1.254-2.8,2.8v3.5h-33.6v-3.5  c0-1.546-1.254-2.8-2.8-2.8c-1.547,0-2.801,1.254-2.801,2.8v3.5h-8.399c-3.08,0-5.601,2.521-5.601,5.6v50.4  c0,3.08,2.521,5.6,5.601,5.6h61.6c3.08,0,5.601-2.52,5.601-5.6v-50.4C-273.6,24.871-276.12,22.35-279.2,22.35z M-332.4,75.55  c-1.539,0-2.8-1.26-2.8-2.8s1.261-2.8,2.8-2.8c1.54,0,2.801,1.26,2.801,2.8S-330.86,75.55-332.4,75.55z M-332.4,64.35  c-1.539,0-2.8-1.26-2.8-2.8c0-1.54,1.261-2.8,2.8-2.8c1.54,0,2.801,1.26,2.801,2.8C-329.6,63.09-330.86,64.35-332.4,64.35z   M-321.2,75.55c-1.54,0-2.8-1.26-2.8-2.8s1.26-2.8,2.8-2.8s2.8,1.26,2.8,2.8S-319.66,75.55-321.2,75.55z M-321.2,64.35  c-1.54,0-2.8-1.26-2.8-2.8c0-1.54,1.26-2.8,2.8-2.8s2.8,1.26,2.8,2.8C-318.4,63.09-319.66,64.35-321.2,64.35z M-321.2,53.15  c-1.54,0-2.8-1.26-2.8-2.8s1.26-2.8,2.8-2.8s2.8,1.26,2.8,2.8S-319.66,53.15-321.2,53.15z M-310,75.55c-1.54,0-2.8-1.26-2.8-2.8  s1.26-2.8,2.8-2.8s2.8,1.26,2.8,2.8S-308.46,75.55-310,75.55z M-310,64.35c-1.54,0-2.8-1.26-2.8-2.8c0-1.54,1.26-2.8,2.8-2.8  s2.8,1.26,2.8,2.8C-307.2,63.09-308.46,64.35-310,64.35z M-310,53.15c-1.54,0-2.8-1.26-2.8-2.8s1.26-2.8,2.8-2.8s2.8,1.26,2.8,2.8  S-308.46,53.15-310,53.15z M-298.8,75.55c-1.54,0-2.8-1.26-2.8-2.8s1.26-2.8,2.8-2.8s2.8,1.26,2.8,2.8S-297.26,75.55-298.8,75.55z   M-298.8,64.35c-1.54,0-2.8-1.26-2.8-2.8c0-1.54,1.26-2.8,2.8-2.8s2.8,1.26,2.8,2.8C-296,63.09-297.26,64.35-298.8,64.35z   M-298.8,53.15c-1.54,0-2.8-1.26-2.8-2.8s1.26-2.8,2.8-2.8s2.8,1.26,2.8,2.8S-297.26,53.15-298.8,53.15z M-287.6,64.35  c-1.54,0-2.801-1.26-2.801-2.8c0-1.54,1.261-2.8,2.801-2.8c1.539,0,2.8,1.26,2.8,2.8C-284.8,63.09-286.061,64.35-287.6,64.35z   M-287.6,53.15c-1.54,0-2.801-1.26-2.801-2.8s1.261-2.8,2.801-2.8c1.539,0,2.8,1.26,2.8,2.8S-286.061,53.15-287.6,53.15z   M-281.723,41.95h-56.555c-1.546,0-2.8-1.254-2.8-2.8s1.254-2.8,2.8-2.8h56.555c1.546,0,2.8,1.253,2.8,2.8  S-280.177,41.95-281.723,41.95z"></path><path d="M-160.187,50h-2.706c0-14.947-12.118-27.063-27.063-27.063c-0.015,0-0.029,0.001-0.043,0.001s-0.028-0.001-0.043-0.001  c-14.946,0-27.063,12.116-27.063,27.063h-2.706c-7.474,0-13.532,6.059-13.532,13.532s6.058,13.532,13.532,13.532h29.77  c0.015,0,0.029-0.001,0.043-0.001s0.028,0.001,0.043,0.001h29.77c7.474,0,13.532-6.059,13.532-13.532S-152.713,50-160.187,50z"></path><g><path d="M-77.523,73.278c-1.143,0-2.243-0.453-3.055-1.265l-17.278-17.278c-1.687-1.688-1.687-4.422,0-6.109   c1.688-1.687,4.422-1.687,6.109,0l13.971,13.971l29.291-34.357c1.548-1.813,4.273-2.032,6.09-0.485   c1.815,1.548,2.032,4.275,0.485,6.09L-74.236,71.76c-0.782,0.917-1.911,1.466-3.116,1.514   C-77.409,73.276-77.466,73.278-77.523,73.278z"></path></g><g><path d="M18.192,25.448L50,51.955l31.808-26.507c0.203-0.168,0.427-0.292,0.656-0.395C81.938,24.889,81.378,24.8,80.8,24.8H19.2   c-0.579,0-1.138,0.089-1.664,0.254C17.767,25.156,17.989,25.28,18.192,25.448z"></path><path d="M14.54,70.308l23.581-20.962L14.607,29.751c-0.34-0.283-0.586-0.634-0.755-1.013C13.688,29.264,13.6,29.822,13.6,30.4V69.6   c0,0.575,0.089,1.13,0.251,1.653C14.008,70.903,14.234,70.579,14.54,70.308z"></path><path d="M81.74,74.492L57.528,52.972l-5.736,4.779C51.273,58.184,50.637,58.4,50,58.4s-1.273-0.217-1.792-0.649l-5.736-4.779   L18.26,74.492c-0.22,0.195-0.466,0.341-0.721,0.455c0.525,0.164,1.083,0.253,1.661,0.253h61.6c0.578,0,1.137-0.089,1.661-0.253   C82.205,74.833,81.96,74.688,81.74,74.492z"></path><path d="M86.147,28.738c-0.169,0.379-0.415,0.729-0.755,1.013L61.879,49.346L85.46,70.308c0.306,0.271,0.532,0.596,0.689,0.945   c0.162-0.523,0.251-1.078,0.251-1.653V30.4C86.4,29.822,86.312,29.264,86.147,28.738z"></path></g><g><path d="M162.65,63.3h40.6c3.08,0,5.6-2.52,5.6-5.6V25.5c0-3.079-2.52-5.6-5.6-5.6h-66.5c-3.08,0-5.6,2.521-5.6,5.6v32.2   c0,3.08,2.52,5.6,5.6,5.6h9.1v16.8L162.65,63.3z"></path></g><path d="M325.664,78.735l-13.02-13.021c-1.177-1.177-2.803-1.627-4.325-1.356l-4.313-4.311c4.104-4.983,6.573-11.362,6.573-18.308  c0-15.902-12.938-28.84-28.84-28.84S252.9,25.838,252.9,41.74s12.938,28.839,28.84,28.839c6.945,0,13.324-2.468,18.308-6.572  l4.311,4.312c-0.271,1.522,0.18,3.149,1.356,4.325l13.02,13.021c0.957,0.957,2.211,1.436,3.466,1.436  c1.254,0,2.507-0.479,3.464-1.435C327.578,83.751,327.578,80.648,325.664,78.735z M281.74,64.979  c-12.815,0-23.24-10.426-23.24-23.239c0-12.814,10.425-23.24,23.24-23.24c12.814,0,23.24,10.426,23.24,23.24  C304.98,54.554,294.555,64.979,281.74,64.979z"></path><path d="M441.311,24.229c-1.076,0-1.949,0.873-1.949,1.95c0,15.557-12.656,28.213-28.213,28.213h-27.752l14.15-14.15  c0.762-0.761,0.762-1.996,0-2.757s-1.996-0.762-2.758,0l-17.479,17.479c-0.367,0.366-0.572,0.862-0.572,1.379  c0,0.517,0.205,1.013,0.572,1.378L394.789,75.2c0.381,0.381,0.879,0.571,1.379,0.571c0.498,0,0.998-0.19,1.379-0.571  c0.762-0.761,0.762-1.996,0-2.757l-14.15-14.15h27.752c17.707,0,32.113-14.406,32.113-32.113  C443.262,25.102,442.389,24.229,441.311,24.229z"></path></svg></g></g></svg>